<mxfile host="app.diagrams.net" agent="Mozilla/5.0 (Macintosh; Intel Mac OS X 10_15_7) AppleWebKit/605.1.15 (KHTML, like Gecko) Version/18.1.1 Safari/605.1.15" version="25.0.0">
  <diagram name="Page-1" id="KEwP62wF_SwWtXxTEuBz">
    <mxGraphModel dx="1386" dy="-114" grid="1" gridSize="10" guides="1" tooltips="1" connect="1" arrows="1" fold="1" page="1" pageScale="1" pageWidth="1169" pageHeight="827" math="0" shadow="0">
      <root>
        <mxCell id="0" />
        <mxCell id="1" parent="0" />
        <mxCell id="Woj5O2DryIJ29A_ZGA0t-1" value="Game" style="swimlane;fontStyle=1;align=center;verticalAlign=top;childLayout=stackLayout;horizontal=1;startSize=30;horizontalStack=0;resizeParent=1;resizeParentMax=0;resizeLast=0;collapsible=1;marginBottom=0;whiteSpace=wrap;html=1;" parent="1" vertex="1">
          <mxGeometry x="595" y="940" width="160" height="120" as="geometry" />
        </mxCell>
        <mxCell id="Woj5O2DryIJ29A_ZGA0t-2" value="+ sudoku: Sudoku&lt;div&gt;&lt;br&gt;&lt;/div&gt;" style="text;strokeColor=none;fillColor=none;align=left;verticalAlign=top;spacingLeft=4;spacingRight=4;overflow=hidden;rotatable=0;points=[[0,0.5],[1,0.5]];portConstraint=eastwest;whiteSpace=wrap;html=1;" parent="Woj5O2DryIJ29A_ZGA0t-1" vertex="1">
          <mxGeometry y="30" width="160" height="26" as="geometry" />
        </mxCell>
        <mxCell id="Woj5O2DryIJ29A_ZGA0t-3" value="" style="line;strokeWidth=1;fillColor=none;align=left;verticalAlign=middle;spacingTop=-1;spacingLeft=3;spacingRight=3;rotatable=0;labelPosition=right;points=[];portConstraint=eastwest;strokeColor=inherit;" parent="Woj5O2DryIJ29A_ZGA0t-1" vertex="1">
          <mxGeometry y="56" width="160" height="8" as="geometry" />
        </mxCell>
        <mxCell id="Woj5O2DryIJ29A_ZGA0t-4" value="&lt;div&gt;+ Game()&lt;/div&gt;+ start(): void&lt;div&gt;+ saveProgress(): void&lt;/div&gt;" style="text;strokeColor=none;fillColor=none;align=left;verticalAlign=top;spacingLeft=4;spacingRight=4;overflow=hidden;rotatable=0;points=[[0,0.5],[1,0.5]];portConstraint=eastwest;whiteSpace=wrap;html=1;" parent="Woj5O2DryIJ29A_ZGA0t-1" vertex="1">
          <mxGeometry y="64" width="160" height="56" as="geometry" />
        </mxCell>
        <mxCell id="Woj5O2DryIJ29A_ZGA0t-5" value="Database" style="swimlane;fontStyle=0;childLayout=stackLayout;horizontal=1;startSize=26;fillColor=none;horizontalStack=0;resizeParent=1;resizeParentMax=0;resizeLast=0;collapsible=1;marginBottom=0;whiteSpace=wrap;html=1;" parent="1" vertex="1">
          <mxGeometry x="890" y="860" width="180" height="114" as="geometry" />
        </mxCell>
        <mxCell id="Woj5O2DryIJ29A_ZGA0t-7" value="+ currentState&lt;div&gt;+ savedBoards: vector&amp;lt;Board&amp;gt;&lt;/div&gt;&lt;div&gt;+ bestScore: int&lt;/div&gt;" style="text;strokeColor=none;fillColor=none;align=left;verticalAlign=top;spacingLeft=4;spacingRight=4;overflow=hidden;rotatable=0;points=[[0,0.5],[1,0.5]];portConstraint=eastwest;whiteSpace=wrap;html=1;" parent="Woj5O2DryIJ29A_ZGA0t-5" vertex="1">
          <mxGeometry y="26" width="180" height="54" as="geometry" />
        </mxCell>
        <mxCell id="vE0TBjuXNU_hQBia-oiS-7" value="&amp;nbsp;+ addBoard(Board b): void" style="html=1;whiteSpace=wrap;fontSize=12;verticalAlign=top;align=left;" vertex="1" parent="Woj5O2DryIJ29A_ZGA0t-5">
          <mxGeometry y="80" width="180" height="34" as="geometry" />
        </mxCell>
        <mxCell id="Woj5O2DryIJ29A_ZGA0t-15" style="edgeStyle=orthogonalEdgeStyle;rounded=0;orthogonalLoop=1;jettySize=auto;html=1;exitX=0.5;exitY=0;exitDx=0;exitDy=0;entryX=0.5;entryY=1;entryDx=0;entryDy=0;entryPerimeter=0;" parent="1" source="Woj5O2DryIJ29A_ZGA0t-11" target="Woj5O2DryIJ29A_ZGA0t-4" edge="1">
          <mxGeometry relative="1" as="geometry">
            <mxPoint x="490" y="230" as="targetPoint" />
          </mxGeometry>
        </mxCell>
        <mxCell id="Woj5O2DryIJ29A_ZGA0t-11" value="Sudoku" style="swimlane;fontStyle=1;align=center;verticalAlign=top;childLayout=stackLayout;horizontal=1;startSize=26;horizontalStack=0;resizeParent=1;resizeParentMax=0;resizeLast=0;collapsible=1;marginBottom=0;whiteSpace=wrap;html=1;" parent="1" vertex="1">
          <mxGeometry x="530" y="1136" width="290" height="170" as="geometry" />
        </mxCell>
        <mxCell id="Woj5O2DryIJ29A_ZGA0t-12" value="+ board: Board&lt;div&gt;+ player: Player&lt;/div&gt;&lt;div&gt;+ mode: char {SOLVER/USER}&lt;/div&gt;&lt;div&gt;+ manager: Manager&lt;/div&gt;&lt;div&gt;+ difficulty: {EASY, MEDIUM, HARD}&lt;/div&gt;" style="text;strokeColor=none;fillColor=none;align=left;verticalAlign=top;spacingLeft=4;spacingRight=4;overflow=hidden;rotatable=0;points=[[0,0.5],[1,0.5]];portConstraint=eastwest;whiteSpace=wrap;html=1;" parent="Woj5O2DryIJ29A_ZGA0t-11" vertex="1">
          <mxGeometry y="26" width="290" height="94" as="geometry" />
        </mxCell>
        <mxCell id="Woj5O2DryIJ29A_ZGA0t-13" value="" style="line;strokeWidth=1;fillColor=none;align=left;verticalAlign=middle;spacingTop=-1;spacingLeft=3;spacingRight=3;rotatable=0;labelPosition=right;points=[];portConstraint=eastwest;strokeColor=inherit;" parent="Woj5O2DryIJ29A_ZGA0t-11" vertex="1">
          <mxGeometry y="120" width="290" height="10" as="geometry" />
        </mxCell>
        <mxCell id="Woj5O2DryIJ29A_ZGA0t-67" value="&lt;div&gt;+ Sudoku(const Player &amp;amp;p, Board &amp;amp;b, Manager m)&amp;nbsp;&lt;/div&gt;+ chooseBoard(): Board" style="text;html=1;align=left;verticalAlign=top;resizable=0;points=[];autosize=1;strokeColor=none;fillColor=none;" parent="Woj5O2DryIJ29A_ZGA0t-11" vertex="1">
          <mxGeometry y="130" width="290" height="40" as="geometry" />
        </mxCell>
        <mxCell id="Woj5O2DryIJ29A_ZGA0t-16" value="Player" style="swimlane;fontStyle=0;childLayout=stackLayout;horizontal=1;startSize=26;fillColor=none;horizontalStack=0;resizeParent=1;resizeParentMax=0;resizeLast=0;collapsible=1;marginBottom=0;whiteSpace=wrap;html=1;" parent="1" vertex="1">
          <mxGeometry x="930" y="1200" width="140" height="30" as="geometry" />
        </mxCell>
        <mxCell id="Woj5O2DryIJ29A_ZGA0t-21" value="User" style="swimlane;fontStyle=1;align=center;verticalAlign=top;childLayout=stackLayout;horizontal=1;startSize=26;horizontalStack=0;resizeParent=1;resizeParentMax=0;resizeLast=0;collapsible=1;marginBottom=0;whiteSpace=wrap;html=1;" parent="1" vertex="1">
          <mxGeometry x="920" y="1036" width="160" height="100" as="geometry" />
        </mxCell>
        <mxCell id="Woj5O2DryIJ29A_ZGA0t-22" value="+ name: string" style="text;strokeColor=none;fillColor=none;align=left;verticalAlign=top;spacingLeft=4;spacingRight=4;overflow=hidden;rotatable=0;points=[[0,0.5],[1,0.5]];portConstraint=eastwest;whiteSpace=wrap;html=1;" parent="Woj5O2DryIJ29A_ZGA0t-21" vertex="1">
          <mxGeometry y="26" width="160" height="26" as="geometry" />
        </mxCell>
        <mxCell id="Woj5O2DryIJ29A_ZGA0t-23" value="" style="line;strokeWidth=1;fillColor=none;align=left;verticalAlign=middle;spacingTop=-1;spacingLeft=3;spacingRight=3;rotatable=0;labelPosition=right;points=[];portConstraint=eastwest;strokeColor=inherit;" parent="Woj5O2DryIJ29A_ZGA0t-21" vertex="1">
          <mxGeometry y="52" width="160" height="8" as="geometry" />
        </mxCell>
        <mxCell id="Woj5O2DryIJ29A_ZGA0t-24" value="+ takeTurn(): char&lt;div&gt;+ inputBoard(): Board&lt;/div&gt;" style="text;strokeColor=none;fillColor=none;align=left;verticalAlign=top;spacingLeft=4;spacingRight=4;overflow=hidden;rotatable=0;points=[[0,0.5],[1,0.5]];portConstraint=eastwest;whiteSpace=wrap;html=1;" parent="Woj5O2DryIJ29A_ZGA0t-21" vertex="1">
          <mxGeometry y="60" width="160" height="40" as="geometry" />
        </mxCell>
        <mxCell id="Woj5O2DryIJ29A_ZGA0t-26" value="Solver" style="swimlane;fontStyle=1;align=center;verticalAlign=top;childLayout=stackLayout;horizontal=1;startSize=26;horizontalStack=0;resizeParent=1;resizeParentMax=0;resizeLast=0;collapsible=1;marginBottom=0;whiteSpace=wrap;html=1;" parent="1" vertex="1">
          <mxGeometry x="880" y="1290" width="240" height="114" as="geometry" />
        </mxCell>
        <mxCell id="Woj5O2DryIJ29A_ZGA0t-28" value="" style="line;strokeWidth=1;fillColor=none;align=left;verticalAlign=middle;spacingTop=-1;spacingLeft=3;spacingRight=3;rotatable=0;labelPosition=right;points=[];portConstraint=eastwest;strokeColor=inherit;" parent="Woj5O2DryIJ29A_ZGA0t-26" vertex="1">
          <mxGeometry y="26" width="240" height="8" as="geometry" />
        </mxCell>
        <mxCell id="Woj5O2DryIJ29A_ZGA0t-29" value="+ solve(board: Board); char&lt;div&gt;+ checkIfSolvable(board: Board): bool&lt;/div&gt;&lt;div&gt;+ estimateDifficulty(board: Board): string&lt;/div&gt;" style="text;strokeColor=none;fillColor=none;align=left;verticalAlign=top;spacingLeft=4;spacingRight=4;overflow=hidden;rotatable=0;points=[[0,0.5],[1,0.5]];portConstraint=eastwest;whiteSpace=wrap;html=1;" parent="Woj5O2DryIJ29A_ZGA0t-26" vertex="1">
          <mxGeometry y="34" width="240" height="80" as="geometry" />
        </mxCell>
        <mxCell id="Woj5O2DryIJ29A_ZGA0t-31" value="Interface" style="swimlane;fontStyle=1;align=center;verticalAlign=top;childLayout=stackLayout;horizontal=1;startSize=26;horizontalStack=0;resizeParent=1;resizeParentMax=0;resizeLast=0;collapsible=1;marginBottom=0;whiteSpace=wrap;html=1;" parent="1" vertex="1">
          <mxGeometry x="330" y="940" width="160" height="130" as="geometry" />
        </mxCell>
        <mxCell id="Woj5O2DryIJ29A_ZGA0t-32" value="+ mode: light/dark" style="text;strokeColor=none;fillColor=none;align=left;verticalAlign=top;spacingLeft=4;spacingRight=4;overflow=hidden;rotatable=0;points=[[0,0.5],[1,0.5]];portConstraint=eastwest;whiteSpace=wrap;html=1;" parent="Woj5O2DryIJ29A_ZGA0t-31" vertex="1">
          <mxGeometry y="26" width="160" height="26" as="geometry" />
        </mxCell>
        <mxCell id="Woj5O2DryIJ29A_ZGA0t-33" value="" style="line;strokeWidth=1;fillColor=none;align=left;verticalAlign=middle;spacingTop=-1;spacingLeft=3;spacingRight=3;rotatable=0;labelPosition=right;points=[];portConstraint=eastwest;strokeColor=inherit;" parent="Woj5O2DryIJ29A_ZGA0t-31" vertex="1">
          <mxGeometry y="52" width="160" height="8" as="geometry" />
        </mxCell>
        <mxCell id="Woj5O2DryIJ29A_ZGA0t-34" value="+ input()&lt;div&gt;+ displayBoard()&lt;/div&gt;&lt;div&gt;+ getUserInput()&lt;/div&gt;&lt;div&gt;+ sound()&lt;/div&gt;" style="text;strokeColor=none;fillColor=none;align=left;verticalAlign=top;spacingLeft=4;spacingRight=4;overflow=hidden;rotatable=0;points=[[0,0.5],[1,0.5]];portConstraint=eastwest;whiteSpace=wrap;html=1;" parent="Woj5O2DryIJ29A_ZGA0t-31" vertex="1">
          <mxGeometry y="60" width="160" height="70" as="geometry" />
        </mxCell>
        <mxCell id="vE0TBjuXNU_hQBia-oiS-2" value="Board" style="swimlane;fontStyle=1;align=center;verticalAlign=top;childLayout=stackLayout;horizontal=1;startSize=26;horizontalStack=0;resizeParent=1;resizeParentMax=0;resizeLast=0;collapsible=1;marginBottom=0;whiteSpace=wrap;html=1;" vertex="1" parent="1">
          <mxGeometry x="170" y="1136" width="160" height="86" as="geometry" />
        </mxCell>
        <mxCell id="vE0TBjuXNU_hQBia-oiS-3" value="+ array&amp;lt;char&amp;gt;[9][9]" style="text;strokeColor=none;fillColor=none;align=left;verticalAlign=top;spacingLeft=4;spacingRight=4;overflow=hidden;rotatable=0;points=[[0,0.5],[1,0.5]];portConstraint=eastwest;whiteSpace=wrap;html=1;" vertex="1" parent="vE0TBjuXNU_hQBia-oiS-2">
          <mxGeometry y="26" width="160" height="26" as="geometry" />
        </mxCell>
        <mxCell id="vE0TBjuXNU_hQBia-oiS-4" value="" style="line;strokeWidth=1;fillColor=none;align=left;verticalAlign=middle;spacingTop=-1;spacingLeft=3;spacingRight=3;rotatable=0;labelPosition=right;points=[];portConstraint=eastwest;strokeColor=inherit;" vertex="1" parent="vE0TBjuXNU_hQBia-oiS-2">
          <mxGeometry y="52" width="160" height="8" as="geometry" />
        </mxCell>
        <mxCell id="vE0TBjuXNU_hQBia-oiS-5" value="+ resetBoard(): void" style="text;strokeColor=none;fillColor=none;align=left;verticalAlign=top;spacingLeft=4;spacingRight=4;overflow=hidden;rotatable=0;points=[[0,0.5],[1,0.5]];portConstraint=eastwest;whiteSpace=wrap;html=1;" vertex="1" parent="vE0TBjuXNU_hQBia-oiS-2">
          <mxGeometry y="60" width="160" height="26" as="geometry" />
        </mxCell>
        <mxCell id="Woj5O2DryIJ29A_ZGA0t-36" value="Manager" style="swimlane;fontStyle=1;align=center;verticalAlign=top;childLayout=stackLayout;horizontal=1;startSize=26;horizontalStack=0;resizeParent=1;resizeParentMax=0;resizeLast=0;collapsible=1;marginBottom=0;whiteSpace=wrap;html=1;" parent="1" vertex="1">
          <mxGeometry x="390" y="1360" width="160" height="98" as="geometry" />
        </mxCell>
        <mxCell id="Woj5O2DryIJ29A_ZGA0t-37" value="+ history: History&lt;div&gt;+ timer: Timer&lt;/div&gt;&lt;div&gt;+ errorTracker: ErrorTracker&lt;/div&gt;&lt;div&gt;+ hinter: Hinter&lt;/div&gt;" style="text;strokeColor=none;fillColor=none;align=left;verticalAlign=top;spacingLeft=4;spacingRight=4;overflow=hidden;rotatable=0;points=[[0,0.5],[1,0.5]];portConstraint=eastwest;whiteSpace=wrap;html=1;" parent="Woj5O2DryIJ29A_ZGA0t-36" vertex="1">
          <mxGeometry y="26" width="160" height="64" as="geometry" />
        </mxCell>
        <mxCell id="Woj5O2DryIJ29A_ZGA0t-38" value="" style="line;strokeWidth=1;fillColor=none;align=left;verticalAlign=middle;spacingTop=-1;spacingLeft=3;spacingRight=3;rotatable=0;labelPosition=right;points=[];portConstraint=eastwest;strokeColor=inherit;" parent="Woj5O2DryIJ29A_ZGA0t-36" vertex="1">
          <mxGeometry y="90" width="160" height="8" as="geometry" />
        </mxCell>
        <mxCell id="Woj5O2DryIJ29A_ZGA0t-41" value="History" style="swimlane;fontStyle=1;align=center;verticalAlign=top;childLayout=stackLayout;horizontal=1;startSize=26;horizontalStack=0;resizeParent=1;resizeParentMax=0;resizeLast=0;collapsible=1;marginBottom=0;whiteSpace=wrap;html=1;" parent="1" vertex="1">
          <mxGeometry x="80" y="1494" width="160" height="120" as="geometry" />
        </mxCell>
        <mxCell id="vE0TBjuXNU_hQBia-oiS-8" value="+ previousBoard: Board" style="text;html=1;align=left;verticalAlign=top;resizable=0;points=[];autosize=1;strokeColor=none;fillColor=none;" vertex="1" parent="Woj5O2DryIJ29A_ZGA0t-41">
          <mxGeometry y="26" width="160" height="30" as="geometry" />
        </mxCell>
        <mxCell id="Woj5O2DryIJ29A_ZGA0t-43" value="" style="line;strokeWidth=1;fillColor=none;align=left;verticalAlign=middle;spacingTop=-1;spacingLeft=3;spacingRight=3;rotatable=0;labelPosition=right;points=[];portConstraint=eastwest;strokeColor=inherit;" parent="Woj5O2DryIJ29A_ZGA0t-41" vertex="1">
          <mxGeometry y="56" width="160" height="14" as="geometry" />
        </mxCell>
        <mxCell id="Woj5O2DryIJ29A_ZGA0t-44" value="+ undo(): void&lt;div&gt;+ redo(): void&lt;/div&gt;&lt;div&gt;+ saveToDB(): void&lt;/div&gt;" style="text;strokeColor=none;fillColor=none;align=left;verticalAlign=top;spacingLeft=4;spacingRight=4;overflow=hidden;rotatable=0;points=[[0,0.5],[1,0.5]];portConstraint=eastwest;whiteSpace=wrap;html=1;" parent="Woj5O2DryIJ29A_ZGA0t-41" vertex="1">
          <mxGeometry y="70" width="160" height="50" as="geometry" />
        </mxCell>
        <mxCell id="Woj5O2DryIJ29A_ZGA0t-53" value="ErrorTracker" style="swimlane;fontStyle=1;align=center;verticalAlign=top;childLayout=stackLayout;horizontal=1;startSize=26;horizontalStack=0;resizeParent=1;resizeParentMax=0;resizeLast=0;collapsible=1;marginBottom=0;whiteSpace=wrap;html=1;" parent="1" vertex="1">
          <mxGeometry x="480" y="1494" width="160" height="110" as="geometry" />
        </mxCell>
        <mxCell id="Woj5O2DryIJ29A_ZGA0t-54" value="&lt;div&gt;+ currentErorrs: int&lt;/div&gt;- maxErrors: int&lt;div&gt;&lt;br&gt;&lt;/div&gt;" style="text;strokeColor=none;fillColor=none;align=left;verticalAlign=top;spacingLeft=4;spacingRight=4;overflow=hidden;rotatable=0;points=[[0,0.5],[1,0.5]];portConstraint=eastwest;whiteSpace=wrap;html=1;" parent="Woj5O2DryIJ29A_ZGA0t-53" vertex="1">
          <mxGeometry y="26" width="160" height="34" as="geometry" />
        </mxCell>
        <mxCell id="Woj5O2DryIJ29A_ZGA0t-55" value="" style="line;strokeWidth=1;fillColor=none;align=left;verticalAlign=middle;spacingTop=-1;spacingLeft=3;spacingRight=3;rotatable=0;labelPosition=right;points=[];portConstraint=eastwest;strokeColor=inherit;" parent="Woj5O2DryIJ29A_ZGA0t-53" vertex="1">
          <mxGeometry y="60" width="160" height="8" as="geometry" />
        </mxCell>
        <mxCell id="Woj5O2DryIJ29A_ZGA0t-56" value="+ validateMove(board: Board): bool" style="text;strokeColor=none;fillColor=none;align=left;verticalAlign=top;spacingLeft=4;spacingRight=4;overflow=hidden;rotatable=0;points=[[0,0.5],[1,0.5]];portConstraint=eastwest;whiteSpace=wrap;html=1;" parent="Woj5O2DryIJ29A_ZGA0t-53" vertex="1">
          <mxGeometry y="68" width="160" height="42" as="geometry" />
        </mxCell>
        <mxCell id="Woj5O2DryIJ29A_ZGA0t-49" value="Hinter" style="swimlane;fontStyle=1;align=center;verticalAlign=top;childLayout=stackLayout;horizontal=1;startSize=26;horizontalStack=0;resizeParent=1;resizeParentMax=0;resizeLast=0;collapsible=1;marginBottom=0;whiteSpace=wrap;html=1;" parent="1" vertex="1">
          <mxGeometry x="680" y="1494" width="160" height="60" as="geometry" />
        </mxCell>
        <mxCell id="Woj5O2DryIJ29A_ZGA0t-51" value="" style="line;strokeWidth=1;fillColor=none;align=left;verticalAlign=middle;spacingTop=-1;spacingLeft=3;spacingRight=3;rotatable=0;labelPosition=right;points=[];portConstraint=eastwest;strokeColor=inherit;" parent="Woj5O2DryIJ29A_ZGA0t-49" vertex="1">
          <mxGeometry y="26" width="160" height="8" as="geometry" />
        </mxCell>
        <mxCell id="Woj5O2DryIJ29A_ZGA0t-52" value="+ provideHint(): char" style="text;strokeColor=none;fillColor=none;align=left;verticalAlign=top;spacingLeft=4;spacingRight=4;overflow=hidden;rotatable=0;points=[[0,0.5],[1,0.5]];portConstraint=eastwest;whiteSpace=wrap;html=1;" parent="Woj5O2DryIJ29A_ZGA0t-49" vertex="1">
          <mxGeometry y="34" width="160" height="26" as="geometry" />
        </mxCell>
        <mxCell id="Woj5O2DryIJ29A_ZGA0t-45" value="Timer" style="swimlane;fontStyle=1;align=center;verticalAlign=top;childLayout=stackLayout;horizontal=1;startSize=26;horizontalStack=0;resizeParent=1;resizeParentMax=0;resizeLast=0;collapsible=1;marginBottom=0;whiteSpace=wrap;html=1;" parent="1" vertex="1">
          <mxGeometry x="280" y="1494" width="160" height="146" as="geometry" />
        </mxCell>
        <mxCell id="Woj5O2DryIJ29A_ZGA0t-63" value="+ startTime: int&lt;div&gt;+ elapsedTime: int&lt;/div&gt;&lt;div&gt;- timeout: int&lt;/div&gt;" style="text;html=1;align=left;verticalAlign=middle;resizable=0;points=[];autosize=1;strokeColor=none;fillColor=none;" parent="Woj5O2DryIJ29A_ZGA0t-45" vertex="1">
          <mxGeometry y="26" width="160" height="60" as="geometry" />
        </mxCell>
        <mxCell id="Woj5O2DryIJ29A_ZGA0t-47" value="" style="line;strokeWidth=1;fillColor=none;align=left;verticalAlign=middle;spacingTop=-1;spacingLeft=3;spacingRight=3;rotatable=0;labelPosition=right;points=[];portConstraint=eastwest;strokeColor=inherit;" parent="Woj5O2DryIJ29A_ZGA0t-45" vertex="1">
          <mxGeometry y="86" width="160" height="14" as="geometry" />
        </mxCell>
        <mxCell id="Woj5O2DryIJ29A_ZGA0t-48" value="+ pause(): void&lt;div&gt;+ resume(): void&lt;/div&gt;" style="text;strokeColor=none;fillColor=none;align=left;verticalAlign=top;spacingLeft=4;spacingRight=4;overflow=hidden;rotatable=0;points=[[0,0.5],[1,0.5]];portConstraint=eastwest;whiteSpace=wrap;html=1;" parent="Woj5O2DryIJ29A_ZGA0t-45" vertex="1">
          <mxGeometry y="100" width="160" height="46" as="geometry" />
        </mxCell>
        <mxCell id="vE0TBjuXNU_hQBia-oiS-9" style="edgeStyle=orthogonalEdgeStyle;rounded=0;orthogonalLoop=1;jettySize=auto;html=1;exitX=1;exitY=0.5;exitDx=0;exitDy=0;entryX=0.002;entryY=1.069;entryDx=0;entryDy=0;entryPerimeter=0;" edge="1" parent="1" source="Woj5O2DryIJ29A_ZGA0t-34" target="Woj5O2DryIJ29A_ZGA0t-2">
          <mxGeometry relative="1" as="geometry">
            <Array as="points">
              <mxPoint x="490" y="998" />
              <mxPoint x="520" y="998" />
            </Array>
          </mxGeometry>
        </mxCell>
        <mxCell id="vE0TBjuXNU_hQBia-oiS-19" value="&lt;b&gt;&lt;font style=&quot;font-size: 18px;&quot;&gt;Group:&lt;/font&gt;&lt;/b&gt;&lt;div&gt;&lt;div&gt;&lt;b&gt;&lt;font size=&quot;3&quot;&gt;Daniel Skalski 160261&lt;/font&gt;&lt;/b&gt;&lt;/div&gt;&lt;div&gt;&lt;b&gt;&lt;font size=&quot;3&quot;&gt;Wiktor Talarek 160225&lt;/font&gt;&lt;/b&gt;&lt;/div&gt;&lt;div&gt;&lt;b&gt;&lt;font size=&quot;3&quot;&gt;Mateusz Poczta 160083&lt;/font&gt;&lt;/b&gt;&lt;/div&gt;&lt;/div&gt;" style="text;html=1;align=left;verticalAlign=middle;resizable=0;points=[];autosize=1;strokeColor=none;fillColor=none;" vertex="1" parent="1">
          <mxGeometry x="20" y="860" width="200" height="90" as="geometry" />
        </mxCell>
        <mxCell id="vE0TBjuXNU_hQBia-oiS-20" value="" style="endArrow=diamondThin;endFill=1;endSize=24;html=1;rounded=0;exitX=0.5;exitY=0;exitDx=0;exitDy=0;" edge="1" parent="1" source="Woj5O2DryIJ29A_ZGA0t-36">
          <mxGeometry width="160" relative="1" as="geometry">
            <mxPoint x="370" y="1230" as="sourcePoint" />
            <mxPoint x="530" y="1230" as="targetPoint" />
            <Array as="points">
              <mxPoint x="470" y="1230" />
            </Array>
          </mxGeometry>
        </mxCell>
        <mxCell id="vE0TBjuXNU_hQBia-oiS-21" value="" style="endArrow=diamondThin;endFill=1;endSize=24;html=1;rounded=0;exitX=-0.006;exitY=0.326;exitDx=0;exitDy=0;entryX=1;entryY=0.5;entryDx=0;entryDy=0;exitPerimeter=0;" edge="1" parent="1" source="Woj5O2DryIJ29A_ZGA0t-16" target="Woj5O2DryIJ29A_ZGA0t-12">
          <mxGeometry width="160" relative="1" as="geometry">
            <mxPoint x="755" y="1206" as="sourcePoint" />
            <mxPoint x="915" y="1206" as="targetPoint" />
          </mxGeometry>
        </mxCell>
        <mxCell id="vE0TBjuXNU_hQBia-oiS-22" value="" style="endArrow=diamondThin;endFill=0;endSize=24;html=1;rounded=0;entryX=0.5;entryY=1;entryDx=0;entryDy=0;exitX=0.5;exitY=0;exitDx=0;exitDy=0;" edge="1" parent="1" source="Woj5O2DryIJ29A_ZGA0t-26" target="Woj5O2DryIJ29A_ZGA0t-16">
          <mxGeometry width="160" relative="1" as="geometry">
            <mxPoint x="890" y="1250" as="sourcePoint" />
            <mxPoint x="1050" y="1250" as="targetPoint" />
          </mxGeometry>
        </mxCell>
        <mxCell id="vE0TBjuXNU_hQBia-oiS-23" value="" style="endArrow=diamondThin;endFill=0;endSize=24;html=1;rounded=0;exitX=0.498;exitY=0.986;exitDx=0;exitDy=0;exitPerimeter=0;entryX=0.5;entryY=0;entryDx=0;entryDy=0;" edge="1" parent="1" source="Woj5O2DryIJ29A_ZGA0t-24" target="Woj5O2DryIJ29A_ZGA0t-16">
          <mxGeometry width="160" relative="1" as="geometry">
            <mxPoint x="890" y="1180" as="sourcePoint" />
            <mxPoint x="1050" y="1180" as="targetPoint" />
          </mxGeometry>
        </mxCell>
        <mxCell id="vE0TBjuXNU_hQBia-oiS-24" value="" style="text;strokeColor=none;fillColor=none;align=left;verticalAlign=middle;spacingTop=-1;spacingLeft=4;spacingRight=4;rotatable=0;labelPosition=right;points=[];portConstraint=eastwest;" vertex="1" parent="1">
          <mxGeometry x="700" y="1260" width="20" height="14" as="geometry" />
        </mxCell>
        <mxCell id="vE0TBjuXNU_hQBia-oiS-25" value="" style="endArrow=block;endSize=16;endFill=0;html=1;rounded=0;exitX=0.5;exitY=0;exitDx=0;exitDy=0;" edge="1" parent="1" source="Woj5O2DryIJ29A_ZGA0t-41">
          <mxGeometry width="160" relative="1" as="geometry">
            <mxPoint x="160" y="1420" as="sourcePoint" />
            <mxPoint x="390" y="1420" as="targetPoint" />
            <Array as="points">
              <mxPoint x="160" y="1420" />
            </Array>
            <mxPoint as="offset" />
          </mxGeometry>
        </mxCell>
        <mxCell id="vE0TBjuXNU_hQBia-oiS-27" value="" style="endArrow=block;endSize=16;endFill=0;html=1;rounded=0;entryX=1;entryY=0.5;entryDx=0;entryDy=0;exitX=0.5;exitY=0;exitDx=0;exitDy=0;" edge="1" parent="1" source="Woj5O2DryIJ29A_ZGA0t-49" target="Woj5O2DryIJ29A_ZGA0t-37">
          <mxGeometry width="160" relative="1" as="geometry">
            <mxPoint x="760" y="1490" as="sourcePoint" />
            <mxPoint x="780" y="1404" as="targetPoint" />
            <Array as="points">
              <mxPoint x="760" y="1420" />
            </Array>
            <mxPoint as="offset" />
          </mxGeometry>
        </mxCell>
        <mxCell id="vE0TBjuXNU_hQBia-oiS-28" value="" style="endArrow=block;endSize=16;endFill=0;html=1;rounded=0;exitX=0.5;exitY=0;exitDx=0;exitDy=0;entryX=0.75;entryY=1;entryDx=0;entryDy=0;" edge="1" parent="1" source="Woj5O2DryIJ29A_ZGA0t-53" target="Woj5O2DryIJ29A_ZGA0t-36">
          <mxGeometry width="160" relative="1" as="geometry">
            <mxPoint x="390" y="1544" as="sourcePoint" />
            <mxPoint x="620" y="1470" as="targetPoint" />
            <Array as="points">
              <mxPoint x="560" y="1480" />
              <mxPoint x="510" y="1480" />
            </Array>
            <mxPoint as="offset" />
          </mxGeometry>
        </mxCell>
        <mxCell id="vE0TBjuXNU_hQBia-oiS-26" value="" style="endArrow=block;endSize=16;endFill=0;html=1;rounded=0;exitX=0.75;exitY=0;exitDx=0;exitDy=0;" edge="1" parent="1" source="Woj5O2DryIJ29A_ZGA0t-45">
          <mxGeometry width="160" relative="1" as="geometry">
            <mxPoint x="400" y="1490" as="sourcePoint" />
            <mxPoint x="400" y="1460" as="targetPoint" />
            <Array as="points">
              <mxPoint x="400" y="1480.32" />
            </Array>
            <mxPoint as="offset" />
          </mxGeometry>
        </mxCell>
      </root>
    </mxGraphModel>
  </diagram>
</mxfile>
